<?xml version="1.0" encoding="utf-8"?>
<svg version="1.1" id="Layer_1" x="0px" y="0px" viewBox="0 0 385.072 385.072" style="enable-background:new 0 0 385.072 385.072;" xmlns="http://www.w3.org/2000/svg">
  <g>
    <title>gauge</title>
    <path d="M 174.089 234.651 C 163.053 241.027 155.632 252.943 155.632 266.602 L 7.5 266.602 C 7.5 198.123 44.707 138.321 100.005 106.334 L 174.089 234.651 Z" style="fill: rgb(46, 204, 64);">
      <title>low</title>
    </path>
    <path style="fill: rgb(255, 219, 119);" d="M 285.069 106.334 L 210.985 234.651 C 199.618 228.054 185.452 228.057 174.09 234.651 L 100.006 106.334 C 157.045 73.325 227.908 73.255 285.069 106.334 Z">
      <title>medium</title>
    </path>
    <path style="fill: rgb(255, 120, 118);" d="M 377.573 266.603 L 229.441 266.603 C 229.441 265.787 229.414 264.97 229.368 264.163 L 274.905 220.626 L 213.92 236.542 C 212.975 235.863 211.994 235.239 210.984 234.652 L 285.068 106.335 C 340.366 138.322 377.573 198.123 377.573 266.603 Z">
      <title>high</title>
    </path>
    <path d="M 274.905 220.625 L 229.368 264.162 C 228.616 252.769 222.699 242.788 213.92 236.541 L 274.905 220.625 Z" style="fill: rgb(255, 120, 118);">
      <title>indicator</title>
    </path>
    <path d="M 192.537 303.507 C 172.295 303.507 155.632 287.11 155.632 266.602 C 155.632 252.943 163.053 241.026 174.089 234.651 C 185.457 228.054 199.622 228.057 210.984 234.651 C 211.993 235.238 212.975 235.862 213.92 236.541 C 243.202 257.378 228.229 303.507 192.537 303.507 Z" style="fill: rgb(255, 120, 118);">
      <title>pivot</title>
    </path>
    <path style="fill: rgb(255, 219, 119); visibility: hidden;" d="M 322.983 180.09 C 315.399 180.068 309.243 186.21 309.243 193.789 C 309.243 186.21 303.088 180.068 295.504 180.09 C 283.577 180.124 277.313 194.539 285.643 203.252 L 285.639 203.254 L 304.414 222.77 C 307.05 225.51 311.435 225.51 314.071 222.77 L 332.846 203.254 L 332.842 203.252 C 341.185 194.528 334.894 180.124 322.983 180.09 Z">
      <title>heart</title>
    </path>
    <path style="fill: rgb(65, 64, 66);" d="M 288.824 99.842 C 288.823 99.841 288.821 99.841 288.82 99.84 C 229.432 65.474 155.648 65.472 96.259 99.837 C 96.256 99.839 96.252 99.84 96.249 99.842 C 38.527 133.231 0 195.607 0 266.603 C 0 270.746 3.358 274.103 7.5 274.103 L 148.778 274.103 C 152.354 295.027 170.609 311.007 192.536 311.007 C 214.556 311.007 232.329 295.748 236.234 274.103 L 377.572 274.103 C 381.714 274.103 385.072 270.746 385.072 266.603 C 385.073 195.579 346.522 133.217 288.824 99.842 Z M 233.704 249.64 C 232.371 246.411 230.644 243.336 228.536 240.478 L 248.826 235.183 L 233.704 249.64 Z M 274.747 109.211 L 207.924 224.951 C 198.35 221.41 187.305 221.193 177.149 224.951 L 110.326 109.211 C 161.676 82.345 223.398 82.345 274.747 109.211 Z M 97.342 116.723 L 164.166 232.464 C 155.961 239.294 150.533 248.928 148.776 259.103 L 15.158 259.103 C 17.673 199.393 49.617 147.1 97.342 116.723 Z M 192.537 296.007 C 176.323 296.007 163.132 282.817 163.132 266.603 C 163.132 250.412 176.33 237.196 192.539 237.196 C 208.391 237.196 221.727 249.921 221.935 266.211 C 221.868 281.12 210.877 296.007 192.537 296.007 Z M 245.513 259.103 L 280.088 226.046 C 285.656 220.721 280.474 211.424 273.011 213.368 L 224.646 225.99 L 287.732 116.722 C 335.451 147.095 367.401 199.385 369.916 259.102 L 245.513 259.102 L 245.513 259.103 Z">
      <title>outline</title>
    </path>
  </g>
</svg>